<?xml version="1.0" encoding="UTF-8" standalone="no"?>
<!-- Generator: Adobe Illustrator 18.0.0, SVG Export Plug-In . SVG Version: 6.00 Build 0)  -->

<svg
        xmlns:dc="http://purl.org/dc/elements/1.1/"
        xmlns:cc="http://creativecommons.org/ns#"
        xmlns:rdf="http://www.w3.org/1999/02/22-rdf-syntax-ns#"
        xmlns:sodipodi="http://sodipodi.sourceforge.net/DTD/sodipodi-0.dtd"
        xmlns:inkscape="http://www.inkscape.org/namespaces/inkscape"
        xmlns="http://www.w3.org/2000/svg"
        version="1.1"
        id="Capa_1"
        x="0px"
        y="0px"
        viewBox="0 0 19.819207 20.483932"
        xml:space="preserve"
        width="19.819208"
        height="20.483932"
        pagecolor="#ffffff"
        bordercolor="#666666"
        borderopacity="1"
        objecttolerance="10"
        gridtolerance="10"
        guidetolerance="10"
        showgrid="false"
        fit-margin-top="0"
        fit-margin-left="0"
        fit-margin-right="0"
        fit-margin-bottom="0"
        sodipodi:docname="chef-hat-svgrepo-com.svg"
        inkscape:version="0.92.4 (unknown)"><metadata
   id="metadata24"><rdf:RDF><cc:Work
       rdf:about=""><dc:format>image/svg+xml</dc:format><dc:type
        rdf:resource="http://purl.org/dc/dcmitype/StillImage"/><dc:title></dc:title></cc:Work></rdf:RDF></metadata>
    <defs
            id="defs22"/>
    <sodipodi:namedview
            pagecolor="#ffffff"
            bordercolor="#666666"
            borderopacity="1"
            objecttolerance="10"
            gridtolerance="10"
            guidetolerance="10"
            inkscape:pageopacity="0"
            inkscape:pageshadow="2"
            inkscape:window-width="1920"
            inkscape:window-height="1015"
            id="namedview20"
            showgrid="false"
            fit-margin-top="0"
            fit-margin-left="0"
            fit-margin-right="0"
            fit-margin-bottom="0"
            inkscape:zoom="5.8059485"
            inkscape:cx="28.930697"
            inkscape:cy="-18.339538"
            inkscape:window-x="0"
            inkscape:window-y="0"
            inkscape:window-maximized="1"
            inkscape:current-layer="Capa_1"/>
    <g
            id="g4539"
            transform="matrix(0.08908396,0,0,0.08908396,0.03283744,-0.31243023)">
	<path
            d="M 197.44836,67.140812 C 196.68395,66.636091 195.90299,66.149194 195.1074,65.679004 195.70179,46.671875 186.55459,28.821516 170.44954,18.187668 154.34365,7.5532685 134.33503,6.1526099 117.09065,14.166084 116.34631,13.618285 115.5904,13.091615 114.826,12.586895 89.535586,-4.1118672 55.37536,2.8785785 38.676598,28.168992 24.705863,49.327786 27.196902,77.128294 43.902941,95.447143 L 0.87384697,160.61506 c -2.28281427,3.45734 -1.33111587,8.10849 2.12622533,10.3913 L 95.684854,232.2043 c 3.457342,2.28282 8.108486,1.33112 10.391306,-2.12622 l 43.02689,-65.16458 c 23.40623,8.16409 49.95749,-0.46755 63.92602,-21.623 16.69876,-25.29042 9.7097,-59.450926 -15.58071,-76.149688 z M 97.691719,215.5534 17.524464,162.62054 l 7.789009,-11.79652 17.223284,11.3722 22.861178,15.09478 22.862012,15.09534 17.222453,11.37164 -7.789012,11.79652 z m 51.881601,-66.67687 c -3.38915,-1.66739 -7.48932,-0.55561 -9.57047,2.59631 l -27.63401,41.85193 -12.00681,-7.92786 25.77547,-39.03716 c 1.90207,-2.8807 1.10885,-6.75735 -1.77185,-8.65942 -2.88071,-1.90207 -6.75735,-1.10884 -8.65942,1.77186 l -25.775473,39.03716 -12.430739,-8.20777 25.775472,-39.03717 c 1.90207,-2.8807 1.10884,-6.75735 -1.77186,-8.65942 -2.880698,-1.90206 -6.757346,-1.10884 -8.659416,1.77186 l -25.77547,39.03716 -12.428236,-8.20612 25.77547,-39.03716 c 1.90207,-2.8807 1.108846,-6.75735 -1.771854,-8.65942 -2.880701,-1.90207 -6.757349,-1.10884 -8.659419,1.77186 l -25.77547,39.03716 -12.007647,-7.92842 27.233429,-41.245249 c 0.05351,-0.06652 0.106189,-0.133601 0.158031,-0.201227 2.384529,-3.161302 1.901529,-7.631198 -1.103931,-10.21001 C 43.266388,75.676373 40.130777,53.191417 51.19496,36.43462 63.336359,18.046371 88.174342,12.964126 106.56176,25.104973 c 1.60975,1.062889 3.16937,2.265232 4.63767,3.578643 2.42786,2.168672 5.97151,2.524056 8.78019,0.881876 13.24616,-7.740302 29.41944,-7.302246 42.20484,1.139703 12.78457,8.441399 19.53951,23.143595 17.62839,38.368201 -0.40643,3.227138 1.30922,6.341968 4.26113,7.727846 1.77985,0.832486 3.49871,1.793658 5.1093,2.857098 18.38741,12.140847 23.46966,36.97883 11.32826,55.36708 -11.05757,16.74678 -32.95563,22.7013 -50.93822,13.85111 z"
            id="path4537"
            inkscape:connector-curvature="0"/>
</g>
    <g
            id="g4541"
            transform="matrix(0.08908396,0,0,0.08908396,0.03283744,-0.31243023)">
</g>
    <g
            id="g4543"
            transform="matrix(0.08908396,0,0,0.08908396,0.03283744,-0.31243023)">
</g>
    <g
            id="g4545"
            transform="matrix(0.08908396,0,0,0.08908396,0.03283744,-0.31243023)">
</g>
    <g
            id="g4547"
            transform="matrix(0.08908396,0,0,0.08908396,0.03283744,-0.31243023)">
</g>
    <g
            id="g4549"
            transform="matrix(0.08908396,0,0,0.08908396,0.03283744,-0.31243023)">
</g>
    <g
            id="g4551"
            transform="matrix(0.08908396,0,0,0.08908396,0.03283744,-0.31243023)">
</g>
    <g
            id="g4553"
            transform="matrix(0.08908396,0,0,0.08908396,0.03283744,-0.31243023)">
</g>
    <g
            id="g4555"
            transform="matrix(0.08908396,0,0,0.08908396,0.03283744,-0.31243023)">
</g>
    <g
            id="g4557"
            transform="matrix(0.08908396,0,0,0.08908396,0.03283744,-0.31243023)">
</g>
    <g
            id="g4559"
            transform="matrix(0.08908396,0,0,0.08908396,0.03283744,-0.31243023)">
</g>
    <g
            id="g4561"
            transform="matrix(0.08908396,0,0,0.08908396,0.03283744,-0.31243023)">
</g>
    <g
            id="g4563"
            transform="matrix(0.08908396,0,0,0.08908396,0.03283744,-0.31243023)">
</g>
    <g
            id="g4565"
            transform="matrix(0.08908396,0,0,0.08908396,0.03283744,-0.31243023)">
</g>
    <g
            id="g4567"
            transform="matrix(0.08908396,0,0,0.08908396,0.03283744,-0.31243023)">
</g>
    <g
            id="g4569"
            transform="matrix(0.08908396,0,0,0.08908396,0.03283744,-0.31243023)">
</g>
</svg>
